<?xml version="1.0" encoding="UTF-8" standalone="no" ?>
<?xml-stylesheet href="/css/svg.css" type="text/css" ?>
<svg xmlns="http://www.w3.org/2000/svg" viewBox="0 0 740 398.354" enable-background="new 0 0 740 398.354" xmlns:xlink="http://www.w3.org/1999/xlink"><a xlink:href="https://github.com/sparkfun/phant" target="_top"><path d="M691.304 332.454c33.189-38.183 50.486-98.02 48.705-150.33l-.009-.51v-181.26h-161v175h96v15c0 36.829-8.203 75.928-25.507 98.96-15.685 20.875-38.67 34.982-70.493 47.052v61.716c43.985-9.44 83.387-32.36 112.304-65.628zM376.266 23.079c-7.209 16.389-5.56 46.508 22.817 77.457 43.707 47.674 94.901 73.72 128.917 73.72v-173.902h-98.823c-30.119 2.828-47.431 10.265-52.911 22.725zM528 398.354v-172.939c-30.48 0-110.597-22.556-165.935-82.907-16.08-17.543-28.611-39.9-35.286-62.955-7.505-25.918-11.446-54.866 6.554-78.785-76.107 18.142-118.333 71.282-118.333 165.16v232.426h79v-89h151v89h83zM.211 199.734l-.211.51v198.11h160v-184h-88v-15.456c0-38.524 6.503-60.476 20.581-84.111 14.465-24.291 36.419-40.102 67.419-52.231v-61.788c-97 20.703-163.23 97.77-159.789 198.966zM624 76.354h51v51h-51z"/></a></svg>
