<?xml version="1.0" encoding="utf-8"?>
<!-- Generator: Adobe Illustrator 17.1.0, SVG Export Plug-In . SVG Version: 6.00 Build 0)  -->
<!DOCTYPE svg PUBLIC "-//W3C//DTD SVG 1.1//EN" "http://www.w3.org/Graphics/SVG/1.1/DTD/svg11.dtd">
<svg version="1.1" id="Layer_1" xmlns="http://www.w3.org/2000/svg" xmlns:xlink="http://www.w3.org/1999/xlink" x="0px" y="0px"
	 viewBox="0 0 360 216" enable-background="new 0 0 360 216" xml:space="preserve">
<g>
	<path fill="#E62E2F" d="M267,11.2h85.8v92.4c1.8,53.2-35.6,94.8-85.8,101.5v-39.9c30.8-10.3,39.9-31.4,39.9-61H267V11.2z"/>
</g>
<rect x="292" y="60" fill="#FFFFFF" width="17" height="17"/>
<g>
	<path fill="#E62E2F" d="M185.8,73.4c24.9,27.1,59.2,30.4,72.2,30.7V11c0,0-12.5,0-48.7,0c-24.2,0-32.2,7.9-36.2,17.5
		C167,42.8,174.9,61.6,185.8,73.4z"/>
	<path fill="#E62E2F" d="M257.7,113.6c-14.7-0.3-51.8-4.2-79-33.8c-12.8-14-22.3-36.4-14.5-54.9c2.3-5.4,5.6-9.8,9.7-13.3
		c-39.4,3.5-72,23.8-72,84.8c0,67.8,0,108.5,0,108.5h41.7l15.5-41H207v41h51v-91.4L257.7,113.6z"/>
</g>
<path fill="#010101" d="M93.5,204.5H7.7V112C5.9,58.9,43.3,17.2,93.5,10.5v39.9c-30.8,10.3-39.9,31.4-39.9,61h39.9V204.5z"/>
</svg>
